<svg id="SvgjsSvg1001" width="288" height="288" xmlns="http://www.w3.org/2000/svg" version="1.1" xmlns:xlink="http://www.w3.org/1999/xlink" xmlns:svgjs="http://svgjs.com/svgjs"><defs id="SvgjsDefs1002"></defs><g id="SvgjsG1008"><svg xmlns="http://www.w3.org/2000/svg" viewBox="0 0 20 20" width="288" height="288"><g fill="#ffffff" class="colorfff svgShape"><path d="M30.5 389a.5.5 0 0 0-.354.146l-3 3a.5.5 0 0 0-.146.354v10a.5.5 0 0 0 .5.5h10a.5.5 0 0 0 .354-.146l3-3A.5.5 0 0 0 41 399.5v-10a.5.5 0 0 0-.5-.5zm.207 1H40v9.293L37.293 402H28v-9.293z" transform="translate(-24 -386)" fill="#000000" class="color000 svgShape"></path><path d="M39.49 389.988a.5.5 0 0 0-.344.153L37.293 392H29.5a.5.5 0 1 0 0 1H37v7.5a.5.5 0 1 0 1 0v-7.793l1.854-1.861a.5.5 0 0 0-.364-.858z" transform="translate(-24 -386)" fill="#000000" class="color000 svgShape"></path></g></svg></g></svg>